<mxfile host="Electron" modified="2023-04-19T11:40:10.971Z" agent="Mozilla/5.0 (Macintosh; Intel Mac OS X 10_15_7) AppleWebKit/537.36 (KHTML, like Gecko) draw.io/21.1.2 Chrome/106.0.5249.199 Electron/21.4.3 Safari/537.36" etag="GgFOOOtj8rG-gNVfHM54" version="21.1.2" type="device">
  <diagram name="Page-1" id="2YBvvXClWsGukQMizWep">
    <mxGraphModel dx="1525" dy="851" grid="1" gridSize="10" guides="1" tooltips="1" connect="1" arrows="1" fold="1" page="1" pageScale="1" pageWidth="1169" pageHeight="827" math="0" shadow="0">
      <root>
        <mxCell id="0" />
        <mxCell id="1" parent="0" />
        <mxCell id="aM9ryv3xv72pqoxQDRHE-1" value="RMI Server" style="shape=umlLifeline;perimeter=lifelinePerimeter;whiteSpace=wrap;html=1;container=0;dropTarget=0;collapsible=0;recursiveResize=0;outlineConnect=0;portConstraint=eastwest;newEdgeStyle={&quot;edgeStyle&quot;:&quot;elbowEdgeStyle&quot;,&quot;elbow&quot;:&quot;vertical&quot;,&quot;curved&quot;:0,&quot;rounded&quot;:0};" parent="1" vertex="1">
          <mxGeometry x="193" y="18" width="100" height="792" as="geometry" />
        </mxCell>
        <mxCell id="aM9ryv3xv72pqoxQDRHE-2" value="" style="html=1;points=[];perimeter=orthogonalPerimeter;outlineConnect=0;targetShapes=umlLifeline;portConstraint=eastwest;newEdgeStyle={&quot;edgeStyle&quot;:&quot;elbowEdgeStyle&quot;,&quot;elbow&quot;:&quot;vertical&quot;,&quot;curved&quot;:0,&quot;rounded&quot;:0};" parent="aM9ryv3xv72pqoxQDRHE-1" vertex="1">
          <mxGeometry x="45" y="70" width="10" height="710" as="geometry" />
        </mxCell>
        <mxCell id="aM9ryv3xv72pqoxQDRHE-4" value="" style="html=1;points=[];perimeter=orthogonalPerimeter;outlineConnect=0;targetShapes=umlLifeline;portConstraint=eastwest;newEdgeStyle={&quot;edgeStyle&quot;:&quot;elbowEdgeStyle&quot;,&quot;elbow&quot;:&quot;vertical&quot;,&quot;curved&quot;:0,&quot;rounded&quot;:0};" parent="aM9ryv3xv72pqoxQDRHE-1" vertex="1">
          <mxGeometry x="48" y="80" width="10" height="690" as="geometry" />
        </mxCell>
        <mxCell id="kq044FjG_wIb7o_zgf0W-6" value="" style="html=1;points=[];perimeter=orthogonalPerimeter;outlineConnect=0;targetShapes=umlLifeline;portConstraint=eastwest;newEdgeStyle={&quot;edgeStyle&quot;:&quot;elbowEdgeStyle&quot;,&quot;elbow&quot;:&quot;vertical&quot;,&quot;curved&quot;:0,&quot;rounded&quot;:0};" parent="aM9ryv3xv72pqoxQDRHE-1" vertex="1">
          <mxGeometry x="-120" y="180" width="10" height="35" as="geometry" />
        </mxCell>
        <mxCell id="kq044FjG_wIb7o_zgf0W-7" value="Attesa preparazione gioco" style="html=1;verticalAlign=bottom;endArrow=block;edgeStyle=elbowEdgeStyle;elbow=vertical;curved=0;rounded=0;" parent="aM9ryv3xv72pqoxQDRHE-1" source="aM9ryv3xv72pqoxQDRHE-4" target="kq044FjG_wIb7o_zgf0W-6" edge="1">
          <mxGeometry relative="1" as="geometry">
            <mxPoint x="25" y="180" as="sourcePoint" />
            <Array as="points">
              <mxPoint x="-35" y="185" />
              <mxPoint x="25" y="195" />
            </Array>
          </mxGeometry>
        </mxCell>
        <mxCell id="kq044FjG_wIb7o_zgf0W-8" value="wait / notifyAll" style="html=1;verticalAlign=bottom;endArrow=open;dashed=1;endSize=8;edgeStyle=elbowEdgeStyle;elbow=vertical;curved=0;rounded=0;" parent="aM9ryv3xv72pqoxQDRHE-1" source="kq044FjG_wIb7o_zgf0W-6" edge="1">
          <mxGeometry relative="1" as="geometry">
            <mxPoint x="48" y="209" as="targetPoint" />
            <mxPoint x="-85" y="209" as="sourcePoint" />
            <Array as="points">
              <mxPoint x="-75" y="209" />
            </Array>
          </mxGeometry>
        </mxCell>
        <mxCell id="aM9ryv3xv72pqoxQDRHE-5" value="RMI Client" style="shape=umlLifeline;perimeter=lifelinePerimeter;whiteSpace=wrap;html=1;container=0;dropTarget=0;collapsible=0;recursiveResize=0;outlineConnect=0;portConstraint=eastwest;newEdgeStyle={&quot;edgeStyle&quot;:&quot;elbowEdgeStyle&quot;,&quot;elbow&quot;:&quot;vertical&quot;,&quot;curved&quot;:0,&quot;rounded&quot;:0};" parent="1" vertex="1">
          <mxGeometry x="478" y="18" width="100" height="792" as="geometry" />
        </mxCell>
        <mxCell id="aM9ryv3xv72pqoxQDRHE-6" value="" style="html=1;points=[];perimeter=orthogonalPerimeter;outlineConnect=0;targetShapes=umlLifeline;portConstraint=eastwest;newEdgeStyle={&quot;edgeStyle&quot;:&quot;elbowEdgeStyle&quot;,&quot;elbow&quot;:&quot;vertical&quot;,&quot;curved&quot;:0,&quot;rounded&quot;:0};" parent="aM9ryv3xv72pqoxQDRHE-5" vertex="1">
          <mxGeometry x="45" y="70" width="10" height="710" as="geometry" />
        </mxCell>
        <mxCell id="xMZydJABKjSO-pk0NeG1-21" value="" style="html=1;points=[];perimeter=orthogonalPerimeter;outlineConnect=0;targetShapes=umlLifeline;portConstraint=eastwest;newEdgeStyle={&quot;edgeStyle&quot;:&quot;elbowEdgeStyle&quot;,&quot;elbow&quot;:&quot;vertical&quot;,&quot;curved&quot;:0,&quot;rounded&quot;:0};" parent="1" vertex="1">
          <mxGeometry x="98" y="108" width="10" height="35" as="geometry" />
        </mxCell>
        <mxCell id="xMZydJABKjSO-pk0NeG1-22" value="Controlli di integritÃ " style="html=1;verticalAlign=bottom;endArrow=block;edgeStyle=elbowEdgeStyle;elbow=vertical;curved=0;rounded=0;" parent="1" target="xMZydJABKjSO-pk0NeG1-21" edge="1">
          <mxGeometry relative="1" as="geometry">
            <mxPoint x="241" y="123" as="sourcePoint" />
            <Array as="points">
              <mxPoint x="158" y="113" />
              <mxPoint x="218" y="123" />
            </Array>
          </mxGeometry>
        </mxCell>
        <mxCell id="xMZydJABKjSO-pk0NeG1-23" value="return" style="html=1;verticalAlign=bottom;endArrow=open;dashed=1;endSize=8;edgeStyle=elbowEdgeStyle;elbow=vertical;curved=0;rounded=0;" parent="1" edge="1">
          <mxGeometry relative="1" as="geometry">
            <mxPoint x="241" y="137" as="targetPoint" />
            <mxPoint x="108" y="137" as="sourcePoint" />
            <Array as="points">
              <mxPoint x="118" y="137" />
            </Array>
          </mxGeometry>
        </mxCell>
        <mxCell id="xMZydJABKjSO-pk0NeG1-24" value="Move Intermediate" style="shape=umlLifeline;perimeter=lifelinePerimeter;whiteSpace=wrap;html=1;container=0;dropTarget=0;collapsible=0;recursiveResize=0;outlineConnect=0;portConstraint=eastwest;newEdgeStyle={&quot;edgeStyle&quot;:&quot;elbowEdgeStyle&quot;,&quot;elbow&quot;:&quot;vertical&quot;,&quot;curved&quot;:0,&quot;rounded&quot;:0};" parent="1" vertex="1">
          <mxGeometry x="735" y="18" width="100" height="792" as="geometry" />
        </mxCell>
        <mxCell id="xMZydJABKjSO-pk0NeG1-25" value="" style="html=1;points=[];perimeter=orthogonalPerimeter;outlineConnect=0;targetShapes=umlLifeline;portConstraint=eastwest;newEdgeStyle={&quot;edgeStyle&quot;:&quot;elbowEdgeStyle&quot;,&quot;elbow&quot;:&quot;vertical&quot;,&quot;curved&quot;:0,&quot;rounded&quot;:0};" parent="xMZydJABKjSO-pk0NeG1-24" vertex="1">
          <mxGeometry x="45" y="110" width="10" height="670" as="geometry" />
        </mxCell>
        <mxCell id="xMZydJABKjSO-pk0NeG1-42" value="GameController" style="shape=umlLifeline;perimeter=lifelinePerimeter;whiteSpace=wrap;html=1;container=0;dropTarget=0;collapsible=0;recursiveResize=0;outlineConnect=0;portConstraint=eastwest;newEdgeStyle={&quot;edgeStyle&quot;:&quot;elbowEdgeStyle&quot;,&quot;elbow&quot;:&quot;vertical&quot;,&quot;curved&quot;:0,&quot;rounded&quot;:0};" parent="1" vertex="1">
          <mxGeometry x="964" y="18" width="100" height="792" as="geometry" />
        </mxCell>
        <mxCell id="xMZydJABKjSO-pk0NeG1-43" value="" style="html=1;points=[];perimeter=orthogonalPerimeter;outlineConnect=0;targetShapes=umlLifeline;portConstraint=eastwest;newEdgeStyle={&quot;edgeStyle&quot;:&quot;elbowEdgeStyle&quot;,&quot;elbow&quot;:&quot;vertical&quot;,&quot;curved&quot;:0,&quot;rounded&quot;:0};" parent="xMZydJABKjSO-pk0NeG1-42" vertex="1">
          <mxGeometry x="45" y="110" width="10" height="670" as="geometry" />
        </mxCell>
        <mxCell id="xMZydJABKjSO-pk0NeG1-46" value="" style="html=1;points=[];perimeter=orthogonalPerimeter;outlineConnect=0;targetShapes=umlLifeline;portConstraint=eastwest;newEdgeStyle={&quot;edgeStyle&quot;:&quot;elbowEdgeStyle&quot;,&quot;elbow&quot;:&quot;vertical&quot;,&quot;curved&quot;:0,&quot;rounded&quot;:0};" parent="1" vertex="1">
          <mxGeometry x="1134" y="134" width="10" height="50" as="geometry" />
        </mxCell>
        <mxCell id="xMZydJABKjSO-pk0NeG1-47" value="prepareGame()" style="html=1;verticalAlign=bottom;endArrow=block;edgeStyle=elbowEdgeStyle;elbow=vertical;curved=0;rounded=0;" parent="1" target="xMZydJABKjSO-pk0NeG1-46" edge="1">
          <mxGeometry relative="1" as="geometry">
            <mxPoint x="1019" y="144" as="sourcePoint" />
            <Array as="points">
              <mxPoint x="1049" y="144" />
              <mxPoint x="1059" y="154" />
            </Array>
          </mxGeometry>
        </mxCell>
        <mxCell id="xMZydJABKjSO-pk0NeG1-48" value="return" style="html=1;verticalAlign=bottom;endArrow=open;dashed=1;endSize=8;edgeStyle=elbowEdgeStyle;elbow=vertical;curved=0;rounded=0;" parent="1" source="xMZydJABKjSO-pk0NeG1-46" edge="1">
          <mxGeometry relative="1" as="geometry">
            <mxPoint x="1019" y="173" as="targetPoint" />
            <mxPoint x="1029" y="173" as="sourcePoint" />
            <Array as="points">
              <mxPoint x="1069" y="173" />
              <mxPoint x="1049" y="153" />
            </Array>
          </mxGeometry>
        </mxCell>
        <mxCell id="kq044FjG_wIb7o_zgf0W-2" value="" style="endArrow=classic;html=1;rounded=0;labelBorderColor=none;dashed=1;" parent="1" source="aM9ryv3xv72pqoxQDRHE-4" target="aM9ryv3xv72pqoxQDRHE-6" edge="1">
          <mxGeometry width="50" height="50" relative="1" as="geometry">
            <mxPoint x="368" y="228" as="sourcePoint" />
            <mxPoint x="418" y="178" as="targetPoint" />
            <Array as="points">
              <mxPoint x="428" y="178" />
            </Array>
          </mxGeometry>
        </mxCell>
        <mxCell id="kq044FjG_wIb7o_zgf0W-5" value="setGameParameters()&lt;br&gt;(Riferimenti a interfacce remote)" style="edgeLabel;html=1;align=center;verticalAlign=middle;resizable=0;points=[];" parent="kq044FjG_wIb7o_zgf0W-2" vertex="1" connectable="0">
          <mxGeometry x="-0.0599" y="2" relative="1" as="geometry">
            <mxPoint x="9" y="-14" as="offset" />
          </mxGeometry>
        </mxCell>
        <mxCell id="kq044FjG_wIb7o_zgf0W-9" value="" style="endArrow=classic;html=1;rounded=0;labelBorderColor=none;dashed=1;" parent="1" source="aM9ryv3xv72pqoxQDRHE-4" target="aM9ryv3xv72pqoxQDRHE-6" edge="1">
          <mxGeometry width="50" height="50" relative="1" as="geometry">
            <mxPoint x="258" y="268" as="sourcePoint" />
            <mxPoint x="518" y="268" as="targetPoint" />
            <Array as="points">
              <mxPoint x="435" y="268" />
            </Array>
          </mxGeometry>
        </mxCell>
        <mxCell id="kq044FjG_wIb7o_zgf0W-10" value="setCards()&lt;br&gt;(Riferimenti a interfacce remote)" style="edgeLabel;html=1;align=center;verticalAlign=middle;resizable=0;points=[];" parent="kq044FjG_wIb7o_zgf0W-9" vertex="1" connectable="0">
          <mxGeometry x="-0.0599" y="2" relative="1" as="geometry">
            <mxPoint x="9" y="-14" as="offset" />
          </mxGeometry>
        </mxCell>
        <mxCell id="kq044FjG_wIb7o_zgf0W-11" value="" style="html=1;points=[];perimeter=orthogonalPerimeter;outlineConnect=0;targetShapes=umlLifeline;portConstraint=eastwest;newEdgeStyle={&quot;edgeStyle&quot;:&quot;elbowEdgeStyle&quot;,&quot;elbow&quot;:&quot;vertical&quot;,&quot;curved&quot;:0,&quot;rounded&quot;:0};" parent="1" vertex="1">
          <mxGeometry x="133" y="258" width="10" height="80" as="geometry" />
        </mxCell>
        <mxCell id="kq044FjG_wIb7o_zgf0W-12" value="manage()" style="html=1;verticalAlign=bottom;endArrow=block;edgeStyle=elbowEdgeStyle;elbow=vertical;curved=0;rounded=0;" parent="1" target="kq044FjG_wIb7o_zgf0W-11" edge="1">
          <mxGeometry relative="1" as="geometry">
            <mxPoint x="241" y="268.5" as="sourcePoint" />
            <mxPoint x="168" y="278.5" as="targetPoint" />
            <Array as="points">
              <mxPoint x="208" y="268.5" />
              <mxPoint x="188" y="278.5" />
            </Array>
          </mxGeometry>
        </mxCell>
        <mxCell id="kq044FjG_wIb7o_zgf0W-13" value="setStatus()&lt;br&gt;YourTurn&lt;br&gt;&lt;font style=&quot;font-size: 9px;&quot;&gt;giocatore corrente&lt;/font&gt;" style="html=1;verticalAlign=bottom;endArrow=block;endSize=8;edgeStyle=elbowEdgeStyle;elbow=vertical;curved=0;rounded=0;endFill=1;strokeWidth=1;dashed=1;" parent="1" source="kq044FjG_wIb7o_zgf0W-11" edge="1">
          <mxGeometry relative="1" as="geometry">
            <mxPoint x="241" y="328.5" as="targetPoint" />
            <Array as="points">
              <mxPoint x="218" y="328.5" />
            </Array>
          </mxGeometry>
        </mxCell>
        <mxCell id="kq044FjG_wIb7o_zgf0W-14" value="" style="html=1;points=[];perimeter=orthogonalPerimeter;outlineConnect=0;targetShapes=umlLifeline;portConstraint=eastwest;newEdgeStyle={&quot;edgeStyle&quot;:&quot;elbowEdgeStyle&quot;,&quot;elbow&quot;:&quot;vertical&quot;,&quot;curved&quot;:0,&quot;rounded&quot;:0};" parent="1" vertex="1">
          <mxGeometry x="25" y="258" width="10" height="80" as="geometry" />
        </mxCell>
        <mxCell id="kq044FjG_wIb7o_zgf0W-15" value="manage()" style="html=1;verticalAlign=bottom;endArrow=block;edgeStyle=elbowEdgeStyle;elbow=vertical;curved=0;rounded=0;" parent="1" target="kq044FjG_wIb7o_zgf0W-14" edge="1">
          <mxGeometry relative="1" as="geometry">
            <mxPoint x="133" y="268.5" as="sourcePoint" />
            <mxPoint x="60" y="278.5" as="targetPoint" />
            <Array as="points">
              <mxPoint x="100" y="268.5" />
              <mxPoint x="80" y="278.5" />
            </Array>
          </mxGeometry>
        </mxCell>
        <mxCell id="kq044FjG_wIb7o_zgf0W-16" value="setStatus()&lt;br&gt;NotYourTurn" style="html=1;verticalAlign=bottom;endArrow=block;endSize=8;edgeStyle=elbowEdgeStyle;elbow=vertical;curved=0;rounded=0;endFill=1;strokeWidth=1;dashed=1;" parent="1" source="kq044FjG_wIb7o_zgf0W-14" edge="1">
          <mxGeometry relative="1" as="geometry">
            <mxPoint x="133" y="328.5" as="targetPoint" />
            <Array as="points">
              <mxPoint x="110" y="328.5" />
            </Array>
          </mxGeometry>
        </mxCell>
        <mxCell id="kq044FjG_wIb7o_zgf0W-17" value="" style="html=1;points=[];perimeter=orthogonalPerimeter;outlineConnect=0;targetShapes=umlLifeline;portConstraint=eastwest;newEdgeStyle={&quot;edgeStyle&quot;:&quot;elbowEdgeStyle&quot;,&quot;elbow&quot;:&quot;vertical&quot;,&quot;curved&quot;:0,&quot;rounded&quot;:0};" parent="1" vertex="1">
          <mxGeometry x="646" y="316" width="10" height="50" as="geometry" />
        </mxCell>
        <mxCell id="kq044FjG_wIb7o_zgf0W-18" value="get Parameters" style="html=1;verticalAlign=bottom;endArrow=block;edgeStyle=elbowEdgeStyle;elbow=vertical;curved=0;rounded=0;" parent="1" source="aM9ryv3xv72pqoxQDRHE-6" target="kq044FjG_wIb7o_zgf0W-17" edge="1">
          <mxGeometry x="-0.0005" relative="1" as="geometry">
            <mxPoint x="547" y="327" as="sourcePoint" />
            <Array as="points">
              <mxPoint x="561" y="326" />
              <mxPoint x="571" y="336" />
            </Array>
            <mxPoint as="offset" />
          </mxGeometry>
        </mxCell>
        <mxCell id="kq044FjG_wIb7o_zgf0W-19" value="return" style="html=1;verticalAlign=bottom;endArrow=open;dashed=1;endSize=8;edgeStyle=elbowEdgeStyle;elbow=vertical;curved=0;rounded=0;" parent="1" source="kq044FjG_wIb7o_zgf0W-17" target="aM9ryv3xv72pqoxQDRHE-6" edge="1">
          <mxGeometry relative="1" as="geometry">
            <mxPoint x="537" y="357" as="targetPoint" />
            <mxPoint x="541" y="355" as="sourcePoint" />
            <Array as="points">
              <mxPoint x="581" y="355" />
              <mxPoint x="561" y="335" />
            </Array>
          </mxGeometry>
        </mxCell>
        <mxCell id="kq044FjG_wIb7o_zgf0W-20" value="" style="html=1;points=[];perimeter=orthogonalPerimeter;outlineConnect=0;targetShapes=umlLifeline;portConstraint=eastwest;newEdgeStyle={&quot;edgeStyle&quot;:&quot;elbowEdgeStyle&quot;,&quot;elbow&quot;:&quot;vertical&quot;,&quot;curved&quot;:0,&quot;rounded&quot;:0};" parent="1" vertex="1">
          <mxGeometry x="646" y="387" width="10" height="50" as="geometry" />
        </mxCell>
        <mxCell id="kq044FjG_wIb7o_zgf0W-21" value="get Coordinates" style="html=1;verticalAlign=bottom;endArrow=block;edgeStyle=elbowEdgeStyle;elbow=vertical;curved=0;rounded=0;" parent="1" target="kq044FjG_wIb7o_zgf0W-20" edge="1">
          <mxGeometry x="-0.0005" relative="1" as="geometry">
            <mxPoint x="533" y="397" as="sourcePoint" />
            <Array as="points">
              <mxPoint x="561" y="397" />
              <mxPoint x="571" y="407" />
            </Array>
            <mxPoint as="offset" />
          </mxGeometry>
        </mxCell>
        <mxCell id="kq044FjG_wIb7o_zgf0W-22" value="return" style="html=1;verticalAlign=bottom;endArrow=open;dashed=1;endSize=8;edgeStyle=elbowEdgeStyle;elbow=vertical;curved=0;rounded=0;" parent="1" source="kq044FjG_wIb7o_zgf0W-20" edge="1">
          <mxGeometry relative="1" as="geometry">
            <mxPoint x="533" y="426" as="targetPoint" />
            <mxPoint x="541" y="426" as="sourcePoint" />
            <Array as="points">
              <mxPoint x="581" y="426" />
              <mxPoint x="561" y="406" />
            </Array>
          </mxGeometry>
        </mxCell>
        <mxCell id="kq044FjG_wIb7o_zgf0W-23" value="" style="endArrow=classic;html=1;rounded=0;" parent="1" source="aM9ryv3xv72pqoxQDRHE-6" target="xMZydJABKjSO-pk0NeG1-25" edge="1">
          <mxGeometry width="50" height="50" relative="1" as="geometry">
            <mxPoint x="547" y="467" as="sourcePoint" />
            <mxPoint x="677" y="467" as="targetPoint" />
            <Array as="points">
              <mxPoint x="717" y="507" />
            </Array>
          </mxGeometry>
        </mxCell>
        <mxCell id="kq044FjG_wIb7o_zgf0W-24" value="make()" style="edgeLabel;html=1;align=center;verticalAlign=middle;resizable=0;points=[];" parent="kq044FjG_wIb7o_zgf0W-23" vertex="1" connectable="0">
          <mxGeometry x="0.0426" y="2" relative="1" as="geometry">
            <mxPoint x="-6" y="-8" as="offset" />
          </mxGeometry>
        </mxCell>
        <mxCell id="kq044FjG_wIb7o_zgf0W-25" value="" style="endArrow=classic;html=1;rounded=0;dashed=1;labelBorderColor=none;" parent="1" source="aM9ryv3xv72pqoxQDRHE-6" target="xMZydJABKjSO-pk0NeG1-25" edge="1">
          <mxGeometry width="50" height="50" relative="1" as="geometry">
            <mxPoint x="537" y="477" as="sourcePoint" />
            <mxPoint x="767" y="477" as="targetPoint" />
            <Array as="points">
              <mxPoint x="714" y="477" />
            </Array>
          </mxGeometry>
        </mxCell>
        <mxCell id="kq044FjG_wIb7o_zgf0W-26" value="set Move Coordinates" style="edgeLabel;html=1;align=center;verticalAlign=middle;resizable=0;points=[];" parent="kq044FjG_wIb7o_zgf0W-25" vertex="1" connectable="0">
          <mxGeometry x="-0.0599" y="2" relative="1" as="geometry">
            <mxPoint x="9" y="-8" as="offset" />
          </mxGeometry>
        </mxCell>
        <mxCell id="kq044FjG_wIb7o_zgf0W-27" value="return" style="html=1;verticalAlign=bottom;endArrow=open;dashed=1;endSize=8;edgeStyle=elbowEdgeStyle;elbow=vertical;curved=0;rounded=0;" parent="1" source="xMZydJABKjSO-pk0NeG1-25" target="aM9ryv3xv72pqoxQDRHE-6" edge="1">
          <mxGeometry relative="1" as="geometry">
            <mxPoint x="594.5" y="537" as="targetPoint" />
            <mxPoint x="707.5" y="537" as="sourcePoint" />
            <Array as="points">
              <mxPoint x="642.5" y="537" />
              <mxPoint x="622.5" y="517" />
            </Array>
          </mxGeometry>
        </mxCell>
        <mxCell id="kq044FjG_wIb7o_zgf0W-40" value="" style="html=1;points=[];perimeter=orthogonalPerimeter;outlineConnect=0;targetShapes=umlLifeline;portConstraint=eastwest;newEdgeStyle={&quot;edgeStyle&quot;:&quot;elbowEdgeStyle&quot;,&quot;elbow&quot;:&quot;vertical&quot;,&quot;curved&quot;:0,&quot;rounded&quot;:0};" parent="1" vertex="1">
          <mxGeometry x="133" y="519" width="10" height="80" as="geometry" />
        </mxCell>
        <mxCell id="kq044FjG_wIb7o_zgf0W-41" value="manage()" style="html=1;verticalAlign=bottom;endArrow=block;edgeStyle=elbowEdgeStyle;elbow=vertical;curved=0;rounded=0;" parent="1" target="kq044FjG_wIb7o_zgf0W-40" edge="1">
          <mxGeometry relative="1" as="geometry">
            <mxPoint x="241" y="529.5" as="sourcePoint" />
            <mxPoint x="168" y="539.5" as="targetPoint" />
            <Array as="points">
              <mxPoint x="208" y="529.5" />
              <mxPoint x="188" y="539.5" />
            </Array>
          </mxGeometry>
        </mxCell>
        <mxCell id="kq044FjG_wIb7o_zgf0W-42" value="setStatus()&lt;br&gt;YourTurn&lt;br&gt;&lt;font style=&quot;font-size: 9px;&quot;&gt;giocatore corrente&lt;/font&gt;" style="html=1;verticalAlign=bottom;endArrow=block;endSize=8;edgeStyle=elbowEdgeStyle;elbow=vertical;curved=0;rounded=0;endFill=1;strokeWidth=1;dashed=1;" parent="1" source="kq044FjG_wIb7o_zgf0W-40" edge="1">
          <mxGeometry x="-0.0062" relative="1" as="geometry">
            <mxPoint x="241" y="589.5" as="targetPoint" />
            <Array as="points">
              <mxPoint x="218" y="589.5" />
            </Array>
            <mxPoint as="offset" />
          </mxGeometry>
        </mxCell>
        <mxCell id="kq044FjG_wIb7o_zgf0W-43" value="" style="html=1;points=[];perimeter=orthogonalPerimeter;outlineConnect=0;targetShapes=umlLifeline;portConstraint=eastwest;newEdgeStyle={&quot;edgeStyle&quot;:&quot;elbowEdgeStyle&quot;,&quot;elbow&quot;:&quot;vertical&quot;,&quot;curved&quot;:0,&quot;rounded&quot;:0};" parent="1" vertex="1">
          <mxGeometry x="25" y="519" width="10" height="80" as="geometry" />
        </mxCell>
        <mxCell id="kq044FjG_wIb7o_zgf0W-44" value="manage()" style="html=1;verticalAlign=bottom;endArrow=block;edgeStyle=elbowEdgeStyle;elbow=vertical;curved=0;rounded=0;" parent="1" target="kq044FjG_wIb7o_zgf0W-43" edge="1">
          <mxGeometry relative="1" as="geometry">
            <mxPoint x="133" y="529.5" as="sourcePoint" />
            <mxPoint x="60" y="539.5" as="targetPoint" />
            <Array as="points">
              <mxPoint x="100" y="529.5" />
              <mxPoint x="80" y="539.5" />
            </Array>
          </mxGeometry>
        </mxCell>
        <mxCell id="kq044FjG_wIb7o_zgf0W-45" value="setStatus()&lt;br&gt;NotYourTurn" style="html=1;verticalAlign=bottom;endArrow=block;endSize=8;edgeStyle=elbowEdgeStyle;elbow=vertical;curved=0;rounded=0;endFill=1;strokeWidth=1;dashed=1;" parent="1" source="kq044FjG_wIb7o_zgf0W-43" edge="1">
          <mxGeometry relative="1" as="geometry">
            <mxPoint x="133" y="589.5" as="targetPoint" />
            <Array as="points">
              <mxPoint x="110" y="589.5" />
            </Array>
          </mxGeometry>
        </mxCell>
        <mxCell id="kq044FjG_wIb7o_zgf0W-46" value="" style="html=1;points=[];perimeter=orthogonalPerimeter;outlineConnect=0;targetShapes=umlLifeline;portConstraint=eastwest;newEdgeStyle={&quot;edgeStyle&quot;:&quot;elbowEdgeStyle&quot;,&quot;elbow&quot;:&quot;vertical&quot;,&quot;curved&quot;:0,&quot;rounded&quot;:0};" parent="1" vertex="1">
          <mxGeometry x="646" y="567" width="10" height="50" as="geometry" />
        </mxCell>
        <mxCell id="kq044FjG_wIb7o_zgf0W-47" value="get Parameters" style="html=1;verticalAlign=bottom;endArrow=block;edgeStyle=elbowEdgeStyle;elbow=vertical;curved=0;rounded=0;dashed=1;" parent="1" target="kq044FjG_wIb7o_zgf0W-46" edge="1">
          <mxGeometry x="-0.0005" relative="1" as="geometry">
            <mxPoint x="533" y="577" as="sourcePoint" />
            <Array as="points">
              <mxPoint x="561" y="577" />
              <mxPoint x="571" y="587" />
            </Array>
            <mxPoint as="offset" />
          </mxGeometry>
        </mxCell>
        <mxCell id="kq044FjG_wIb7o_zgf0W-48" value="return" style="html=1;verticalAlign=bottom;endArrow=open;dashed=1;endSize=8;edgeStyle=elbowEdgeStyle;elbow=vertical;curved=0;rounded=0;" parent="1" source="kq044FjG_wIb7o_zgf0W-46" edge="1">
          <mxGeometry relative="1" as="geometry">
            <mxPoint x="533" y="606" as="targetPoint" />
            <mxPoint x="541" y="606" as="sourcePoint" />
            <Array as="points">
              <mxPoint x="581" y="606" />
              <mxPoint x="561" y="586" />
            </Array>
          </mxGeometry>
        </mxCell>
        <mxCell id="kq044FjG_wIb7o_zgf0W-49" value="" style="html=1;points=[];perimeter=orthogonalPerimeter;outlineConnect=0;targetShapes=umlLifeline;portConstraint=eastwest;newEdgeStyle={&quot;edgeStyle&quot;:&quot;elbowEdgeStyle&quot;,&quot;elbow&quot;:&quot;vertical&quot;,&quot;curved&quot;:0,&quot;rounded&quot;:0};" parent="1" vertex="1">
          <mxGeometry x="646" y="638" width="10" height="50" as="geometry" />
        </mxCell>
        <mxCell id="kq044FjG_wIb7o_zgf0W-50" value="get Coordinates" style="html=1;verticalAlign=bottom;endArrow=block;edgeStyle=elbowEdgeStyle;elbow=vertical;curved=0;rounded=0;dashed=1;" parent="1" target="kq044FjG_wIb7o_zgf0W-49" edge="1">
          <mxGeometry x="-0.0005" relative="1" as="geometry">
            <mxPoint x="533" y="648" as="sourcePoint" />
            <Array as="points">
              <mxPoint x="561" y="648" />
              <mxPoint x="571" y="658" />
            </Array>
            <mxPoint as="offset" />
          </mxGeometry>
        </mxCell>
        <mxCell id="kq044FjG_wIb7o_zgf0W-51" value="return" style="html=1;verticalAlign=bottom;endArrow=open;dashed=1;endSize=8;edgeStyle=elbowEdgeStyle;elbow=vertical;curved=0;rounded=0;" parent="1" source="kq044FjG_wIb7o_zgf0W-49" edge="1">
          <mxGeometry relative="1" as="geometry">
            <mxPoint x="533" y="677" as="targetPoint" />
            <mxPoint x="541" y="677" as="sourcePoint" />
            <Array as="points">
              <mxPoint x="581" y="677" />
              <mxPoint x="561" y="657" />
            </Array>
          </mxGeometry>
        </mxCell>
        <mxCell id="kq044FjG_wIb7o_zgf0W-52" value="" style="endArrow=classic;html=1;rounded=0;" parent="1" edge="1">
          <mxGeometry width="50" height="50" relative="1" as="geometry">
            <mxPoint x="533" y="758" as="sourcePoint" />
            <mxPoint x="780" y="758" as="targetPoint" />
            <Array as="points">
              <mxPoint x="717" y="758" />
            </Array>
          </mxGeometry>
        </mxCell>
        <mxCell id="kq044FjG_wIb7o_zgf0W-53" value="make()" style="edgeLabel;html=1;align=center;verticalAlign=middle;resizable=0;points=[];" parent="kq044FjG_wIb7o_zgf0W-52" vertex="1" connectable="0">
          <mxGeometry x="0.0426" y="2" relative="1" as="geometry">
            <mxPoint x="-6" y="-8" as="offset" />
          </mxGeometry>
        </mxCell>
        <mxCell id="kq044FjG_wIb7o_zgf0W-54" value="" style="endArrow=classic;html=1;rounded=0;dashed=1;labelBorderColor=none;" parent="1" edge="1">
          <mxGeometry width="50" height="50" relative="1" as="geometry">
            <mxPoint x="533" y="728" as="sourcePoint" />
            <mxPoint x="780" y="728" as="targetPoint" />
            <Array as="points">
              <mxPoint x="714" y="728" />
            </Array>
          </mxGeometry>
        </mxCell>
        <mxCell id="kq044FjG_wIb7o_zgf0W-55" value="set Move Coordinates" style="edgeLabel;html=1;align=center;verticalAlign=middle;resizable=0;points=[];" parent="kq044FjG_wIb7o_zgf0W-54" vertex="1" connectable="0">
          <mxGeometry x="-0.0599" y="2" relative="1" as="geometry">
            <mxPoint x="9" y="-8" as="offset" />
          </mxGeometry>
        </mxCell>
        <mxCell id="kq044FjG_wIb7o_zgf0W-56" value="return" style="html=1;verticalAlign=bottom;endArrow=open;dashed=1;endSize=8;edgeStyle=elbowEdgeStyle;elbow=vertical;curved=0;rounded=0;" parent="1" edge="1">
          <mxGeometry relative="1" as="geometry">
            <mxPoint x="533" y="788" as="targetPoint" />
            <mxPoint x="780" y="788" as="sourcePoint" />
            <Array as="points">
              <mxPoint x="642.5" y="788" />
              <mxPoint x="622.5" y="768" />
            </Array>
          </mxGeometry>
        </mxCell>
        <mxCell id="tJgkLEvtEzhcFXnPan2T-1" value="evolve()" style="html=1;verticalAlign=bottom;endArrow=block;edgeStyle=elbowEdgeStyle;elbow=vertical;curved=0;rounded=0;" parent="1" edge="1">
          <mxGeometry relative="1" as="geometry">
            <mxPoint x="251" y="328.0000000000001" as="sourcePoint" />
            <Array as="points">
              <mxPoint x="337" y="328" />
              <mxPoint x="427" y="328" />
              <mxPoint x="362" y="348" />
            </Array>
            <mxPoint x="523" y="328.0000000000001" as="targetPoint" />
          </mxGeometry>
        </mxCell>
        <mxCell id="tJgkLEvtEzhcFXnPan2T-2" value="evolve()" style="html=1;verticalAlign=bottom;endArrow=block;edgeStyle=elbowEdgeStyle;elbow=vertical;curved=0;rounded=0;" parent="1" source="aM9ryv3xv72pqoxQDRHE-4" target="aM9ryv3xv72pqoxQDRHE-6" edge="1">
          <mxGeometry relative="1" as="geometry">
            <mxPoint x="270" y="590" as="sourcePoint" />
            <Array as="points">
              <mxPoint x="326" y="590" />
              <mxPoint x="416" y="590" />
              <mxPoint x="351" y="610" />
            </Array>
            <mxPoint x="512" y="590.0000000000001" as="targetPoint" />
          </mxGeometry>
        </mxCell>
      </root>
    </mxGraphModel>
  </diagram>
</mxfile>
